# xmcd CD database file
#
# Track frame offsets:
#	150
#	20165
#	39242
#	54800
#	74427
#	120920
#	139110
#	154442
#	178447
#	206155
#	231762
#	252347
#	278560
#	305675
#	324300
#
# Disc length: 4750 seconds
#
# Revision: 16
# Processed by: cddbd v1.5.2PL0 Copyright (c) Steve Scherf et al.
# Submitted via: CDex 1.70beta3
#
DISCID=d8128c0f
DTITLE=ディープ・パープル - ヴェリー・ベスト・オブ・ディープ・パープル
DYEAR=2000
DGENRE=Hard Rock
TTITLE0=ハッシュ
TTITLE1=ケンタッキー・ウーマン 
TTITLE2=ブラック・ナイト 
TTITLE3=スピード・キング 
TTITLE4=チャイルド・イン・タイム 
TTITLE5=ストレンジ・ウーマン 
TTITLE6=ファイアボール 
TTITLE7=デイモンズ・アイ 
TTITLE8=ハイウェイ・スター 
TTITLE9=スモーク・オン・ザ・ウォーター 
TTITLE10=スペース・トラッキン 
TTITLE11=ウーマン・フロム・トーキョー 
TTITLE12=紫の炎 
TTITLE13=嵐の使者 
TTITLE14=ノッキング・アット・ユア・バック・ドア
EXTD=YEAR: 2000
EXTT0=
EXTT1=
EXTT2=
EXTT3=
EXTT4=
EXTT5=
EXTT6=
EXTT7=
EXTT8=
EXTT9=
EXTT10=
EXTT11=
EXTT12=
EXTT13=
EXTT14=
PLAYORDER=
